<svg width="846" height="618" viewBox="0 0 846 618" fill="none" xmlns="http://www.w3.org/2000/svg">
<rect width="846" height="618" fill="white"/>
<path opacity="0.1" fill-rule="evenodd" clip-rule="evenodd" d="M243.465 3.32366C243.561 9.62089 247.025 11.8175 256.859 11.8175C265.132 11.8175 266.08 11.4807 267.506 8.02849C270.647 0.416568 270.062 0 256.241 0C243.993 0 243.415 0.150673 243.465 3.32366ZM576.931 3.05186C576.931 9.9503 579.663 11.8175 589.759 11.8175C599.854 11.8175 602.586 9.9503 602.586 3.05186C602.586 0.22158 601.653 0 589.759 0C577.864 0 576.931 0.22158 576.931 3.05186ZM249.828 159.536V295.436H243.414H237V301.345V307.254H423H609V301.345V295.436H602.586H596.172V159.536V23.6349H589.759H583.345V159.536V295.436H576.931H570.517V227.486V159.536H544.862H519.207V227.486V295.436H512.793H506.379V177.262V59.0873H423H339.621V177.262V295.436H333.207H326.793V227.486V159.536H301.138H275.483V227.486V295.436H269.069H262.655V159.536V23.6349H256.241H249.828V159.536ZM339.621 41.3611V47.2698H423H506.379V41.3611V35.4524H423H339.621V41.3611ZM446.726 85.2763C475.944 104.387 479.696 107.724 486.745 120.859L492.75 132.048L493.215 213.742L493.68 295.436H487.202H480.724V236.349V177.262H423H365.276V236.349V295.436H358.798H352.32L352.785 213.742L353.25 132.048L359.16 121.049C362.41 115 367.525 107.864 370.526 105.192C377.525 98.9564 419.934 71.1662 422.674 71.017C423.819 70.955 434.643 77.3718 446.726 85.2763ZM403.727 96.0833C380.788 110.96 375.868 115.313 370.433 125.543C366.73 132.509 366.02 135.978 365.513 149.565L364.922 165.444H422.822H480.724V152.419C480.724 130.639 474.674 118.254 458.438 106.79C447.233 98.8782 426.826 85.8021 424.278 84.9025C423.099 84.4845 413.851 89.5158 403.727 96.0833ZM307.388 134.84C303.397 137.309 301.805 139.483 301.438 142.965L300.934 147.718H313.865H326.793L326.78 142.917C326.771 138.88 325.762 137.588 320.45 134.793C316.975 132.964 313.84 131.469 313.484 131.469C313.129 131.469 310.385 132.986 307.388 134.84ZM525.22 135.45C520.632 138.353 519.207 140.257 519.207 143.486V147.718H532.034C544.275 147.718 544.86 147.566 544.838 144.395C544.824 142.566 544.283 140.374 543.635 139.523C542.398 137.896 532.742 131.406 531.788 131.558C531.483 131.607 528.528 133.359 525.22 135.45ZM307.552 200.897V230.44H301.138H294.724V200.897V171.353H301.138H307.552V200.897ZM551.276 200.897V230.44H544.862H538.448V200.897V171.353H544.862H551.276V200.897ZM436.584 200.762C445.448 205.201 448.52 207.68 451.416 212.725C454.945 218.871 455.069 220.382 455.069 257.262V295.436H448.655H442.241L442.19 257.399C442.153 229.697 441.605 218.715 440.173 216.982C439.091 215.673 434.601 212.92 430.195 210.863L422.184 207.123L414.63 210.659C410.474 212.605 406.329 215.481 405.417 217.051C404.398 218.803 403.759 234.486 403.759 257.671V295.436H397.345H390.931V257.721C390.931 217.375 391.536 213.661 399.142 207.318C404.026 203.244 419.859 195.185 423 195.173C424.323 195.167 430.435 197.682 436.584 200.762ZM307.552 262.938V283.619H301.138H294.724V262.938V242.258H301.138H307.552V262.938ZM551.276 262.938V283.619H544.862H538.448V262.938V242.258H544.862H551.276V262.938Z" fill="#334E9F"/>
<path d="M430.316 101.187L414.684 65.3145V101.187H430.316Z" fill="#EAB028"/>
<path d="M547.133 157.899C580.187 188.239 598.757 229.389 598.757 272.297H584.792C584.792 232.789 567.693 194.899 537.257 166.963C506.822 139.027 465.542 123.332 422.5 123.332C379.458 123.332 338.178 139.027 307.743 166.963C277.307 194.899 260.208 232.789 260.208 272.297H246.243C246.243 229.389 264.813 188.239 297.867 157.899C330.922 127.558 375.754 110.513 422.5 110.513C469.246 110.513 514.078 127.558 547.133 157.899Z" fill="#EAB028"/>
<path d="M648 265.122L608.919 272.297V265.122H648Z" fill="#EAB028"/>
<path d="M236.081 271.579V265.122L197 271.579H236.081Z" fill="#EAB028"/>
<path d="M296.209 146.231L285.155 156.377L257.521 131.011L296.209 146.231Z" fill="#EAB028"/>
<path d="M548.791 146.231L559.845 156.377L576.426 120.865L548.791 146.231Z" fill="#EAB028"/>
<path fill-rule="evenodd" clip-rule="evenodd" d="M422.8 415.859C460.245 415.859 490.6 385.504 490.6 348.059C490.6 310.614 460.245 280.259 422.8 280.259C385.355 280.259 355 310.614 355 348.059C355 385.504 385.355 415.859 422.8 415.859ZM422.8 333.282C400.9 333.282 369.777 315.029 369.777 315.029H475.823C475.823 315.029 444.7 333.282 422.8 333.282ZM423.669 353.275C427.03 353.275 429.754 350.551 429.754 347.19C429.754 343.829 427.03 341.105 423.669 341.105C420.309 341.105 417.585 343.829 417.585 347.19C417.585 350.551 420.309 353.275 423.669 353.275Z" fill="#334E9F"/>
<path d="M556.865 294.408C557.841 294.471 558.6 295.281 558.6 296.259C558.6 297.237 557.841 298.047 556.865 298.111L485.57 302.761C481.813 303.006 478.631 300.024 478.631 296.259C478.631 292.494 481.813 289.513 485.57 289.758L556.865 294.408Z" fill="#334E9F"/>
<path d="M289.135 294.408C288.159 294.471 287.4 295.281 287.4 296.259C287.4 297.237 288.159 298.047 289.135 298.111L360.43 302.761C364.187 303.006 367.369 300.024 367.369 296.259C367.369 292.494 364.187 289.513 360.43 289.758L289.135 294.408Z" fill="#334E9F"/>
<path d="M419 424.859C419 422.65 420.791 420.859 423 420.859C425.209 420.859 427 422.65 427 424.859V429.859C427 432.069 425.209 433.859 423 433.859C420.791 433.859 419 432.069 419 429.859V424.859Z" fill="#334E9F"/>
<path d="M237 383.859C237 379.993 240.134 376.859 244 376.859C247.866 376.859 251 379.993 251 383.859C251 387.725 247.866 390.859 244 390.859C240.134 390.859 237 387.725 237 383.859Z" fill="#334E9F"/>
<path d="M217 379.859C217 375.993 220.134 372.859 224 372.859C227.866 372.859 231 375.993 231 379.859C231 383.725 227.866 386.859 224 386.859C220.134 386.859 217 383.725 217 379.859Z" fill="#334E9F"/>
<path d="M608.5 383.859C608.5 379.993 605.366 376.859 601.5 376.859C597.634 376.859 594.5 379.993 594.5 383.859C594.5 387.725 597.634 390.859 601.5 390.859C605.366 390.859 608.5 387.725 608.5 383.859Z" fill="#334E9F"/>
<path d="M628.5 379.859C628.5 375.993 625.366 372.859 621.5 372.859C617.634 372.859 614.5 375.993 614.5 379.859C614.5 383.725 617.634 386.859 621.5 386.859C625.366 386.859 628.5 383.725 628.5 379.859Z" fill="#334E9F"/>
<path d="M4.0909 301.109L0 276.359L26.5857 310.809C32.2134 318.101 40.8792 322.403 50.0902 322.479L341 324.859C333.639 345.022 334.623 367.288 343.733 386.723L344.5 388.359L45.8132 342.373C24.448 339.084 7.61611 322.437 4.0909 301.109Z" fill="#334E9F"/>
<path d="M841.409 301.109L845.5 276.359L818.914 310.809C813.287 318.101 804.621 322.403 795.41 322.479L504.5 324.859C511.861 345.022 510.877 367.288 501.767 386.723L501 388.359L799.687 342.373C821.052 339.084 837.884 322.437 841.409 301.109Z" fill="#334E9F"/>
<path d="M428.706 248.069C426.789 247.887 424.815 247.792 422.8 247.792C420.484 247.792 418.224 247.918 416.042 248.156C416.335 249.262 416.916 250.281 417.739 251.104C418.965 252.331 420.628 253.019 422.362 253.019C424.097 253.019 425.76 252.331 426.986 251.104C427.831 250.26 428.42 249.208 428.706 248.069Z" fill="#334E9F"/>
<path d="M414.271 248.377C401.252 250.201 391.364 256.103 389.78 263.344C390.607 263.066 391.703 262.486 392.945 261.663C395.499 259.971 396.546 259.615 398.997 259.604C401.72 259.592 402.907 259.975 405.402 261.668C407.238 262.914 408.226 263.357 409.587 263.545C411.928 263.868 413.534 263.441 415.956 261.851C416.898 261.232 418.045 260.554 418.505 260.342C420.804 259.286 424.079 259.278 426.393 260.323C426.883 260.544 428.055 261.232 428.997 261.851C430.852 263.068 431.819 263.452 433.438 263.61C435.468 263.808 437.24 263.271 439.312 261.828C441.92 260.013 443.167 259.591 445.886 259.607C448.477 259.623 449.353 259.913 451.932 261.615C453.633 262.737 455.004 263.399 455.855 263.515C454.358 256.039 444.019 249.96 430.479 248.264C430.141 249.802 429.37 251.226 428.239 252.357C426.68 253.915 424.566 254.791 422.362 254.791C420.158 254.791 418.044 253.915 416.486 252.357C415.383 251.253 414.622 249.872 414.271 248.377Z" fill="#334E9F"/>
<path d="M389.558 265.264C390.489 265.069 390.908 264.929 391.511 264.646C391.983 264.424 393.118 263.749 394.031 263.145C395.72 262.029 396.589 261.648 397.867 261.462C398.904 261.311 399.437 261.313 400.53 261.469C401.761 261.644 402.771 262.115 404.727 263.423C407.225 265.094 408.938 265.596 411.557 265.425C413.535 265.296 414.814 264.808 417.05 263.328C419.487 261.716 420.336 261.416 422.477 261.416C424.626 261.416 425.446 261.708 427.979 263.376C430.325 264.921 431.411 265.316 433.624 265.426C436.144 265.552 437.784 265.056 440.208 263.435C442.206 262.099 443.19 261.645 444.493 261.458C446.813 261.126 448.579 261.58 450.809 263.08C452.661 264.326 453.999 264.99 455.066 265.194C455.225 265.224 455.365 265.249 455.49 265.271C455.725 265.313 455.905 265.345 456.042 265.384V271.412H389.558V265.391C389.558 265.349 389.558 265.306 389.558 265.264Z" fill="#334E9F"/>
<path d="M456.042 286.842V273.162H389.558V287.067C399.426 281.461 410.839 278.259 423 278.259C434.997 278.259 446.266 281.375 456.042 286.842Z" fill="#334E9F"/>
<path d="M452.363 287.158C443.524 282.743 433.552 280.259 423 280.259C412.447 280.259 402.475 282.743 393.636 287.158H452.363Z" fill="#334E9F"/>
<path d="M120.536 590.809L99.6757 532.227H119.131L135.668 581.189H126.372L143.558 532.227H161.067L177.604 581.189H168.525L185.602 532.227H203.652L182.792 590.809H162.905L148.854 550.277H154.906L140.423 590.809H120.536ZM209.927 590.809V532.227H230.463V590.809H209.927ZM220.195 525.742C216.448 525.742 213.422 524.697 211.116 522.608C208.81 520.518 207.657 517.924 207.657 514.826C207.657 511.727 208.81 509.133 211.116 507.044C213.422 504.954 216.448 503.909 220.195 503.909C223.942 503.909 226.968 504.918 229.274 506.936C231.58 508.881 232.732 511.403 232.732 514.502C232.732 517.744 231.58 520.446 229.274 522.608C227.04 524.697 224.014 525.742 220.195 525.742ZM240.782 590.809V578.703L273.64 540.874L277.098 547.467H241.539V532.227H293.743V544.225L260.778 582.162L257.319 575.461H294.824V590.809H240.782ZM300.84 590.809V578.703L333.698 540.874L337.156 547.467H301.597V532.227H353.801V544.225L320.836 582.162L317.377 575.461H354.882V590.809H300.84ZM391.934 612.75C386.313 612.75 380.945 612.101 375.829 610.804C370.785 609.507 366.462 607.598 362.859 605.076L370.317 590.701C372.767 592.646 375.793 594.159 379.396 595.24C383.071 596.393 386.638 596.969 390.096 596.969C395.644 596.969 399.644 595.744 402.093 593.295C404.543 590.917 405.768 587.422 405.768 582.81V575.893L406.849 559.464L406.741 542.928V532.227H426.304V580.108C426.304 591.205 423.314 599.419 417.333 604.751C411.353 610.083 402.886 612.75 391.934 612.75ZM388.367 587.782C383.179 587.782 378.387 586.629 373.992 584.324C369.668 581.946 366.174 578.667 363.508 574.488C360.914 570.237 359.617 565.229 359.617 559.464C359.617 553.7 360.914 548.728 363.508 544.549C366.174 540.298 369.668 537.019 373.992 534.713C378.387 532.407 383.179 531.255 388.367 531.255C393.339 531.255 397.59 532.263 401.121 534.281C404.651 536.226 407.317 539.289 409.119 543.468C410.992 547.647 411.929 552.979 411.929 559.464C411.929 565.949 410.992 571.282 409.119 575.461C407.317 579.64 404.651 582.738 401.121 584.756C397.59 586.773 393.339 587.782 388.367 587.782ZM393.231 571.462C395.68 571.462 397.842 570.957 399.716 569.948C401.661 568.94 403.174 567.535 404.255 565.733C405.408 563.932 405.984 561.842 405.984 559.464C405.984 557.087 405.408 554.997 404.255 553.196C403.174 551.394 401.661 550.025 399.716 549.088C397.842 548.08 395.68 547.575 393.231 547.575C390.781 547.575 388.583 548.08 386.638 549.088C384.692 550.025 383.143 551.394 381.99 553.196C380.909 554.997 380.369 557.087 380.369 559.464C380.369 561.842 380.909 563.932 381.99 565.733C383.143 567.535 384.692 568.94 386.638 569.948C388.583 570.957 390.781 571.462 393.231 571.462ZM464.142 591.781C459.386 591.781 455.099 590.845 451.28 588.971C447.533 587.098 444.579 584.179 442.417 580.216C440.327 576.181 439.283 571.101 439.283 564.977V532.227H459.819V561.626C459.819 566.166 460.647 569.408 462.304 571.354C464.034 573.299 466.448 574.272 469.546 574.272C471.564 574.272 473.401 573.803 475.058 572.867C476.716 571.93 478.049 570.453 479.057 568.435C480.066 566.346 480.571 563.68 480.571 560.437V532.227H501.106V590.809H481.543V574.272L485.326 578.919C483.309 583.243 480.39 586.485 476.571 588.647C472.752 590.737 468.609 591.781 464.142 591.781ZM514.334 590.809V532.227H534.87V590.809H514.334ZM524.602 525.742C520.855 525.742 517.829 524.697 515.523 522.608C513.217 520.518 512.064 517.924 512.064 514.826C512.064 511.727 513.217 509.133 515.523 507.044C517.829 504.954 520.855 503.909 524.602 503.909C528.349 503.909 531.375 504.918 533.681 506.936C535.987 508.881 537.14 511.403 537.14 514.502C537.14 517.744 535.987 520.446 533.681 522.608C531.447 524.697 528.421 525.742 524.602 525.742ZM573.723 591.781C568.391 591.781 563.527 590.556 559.132 588.107C554.809 585.585 551.35 582.09 548.756 577.622C546.162 573.083 544.865 567.679 544.865 561.41C544.865 555.213 546.162 549.881 548.756 545.414C551.35 540.874 554.809 537.379 559.132 534.929C563.527 532.48 568.391 531.255 573.723 531.255C578.767 531.255 583.019 532.335 586.477 534.497C590.008 536.659 592.674 539.973 594.475 544.441C596.277 548.908 597.177 554.565 597.177 561.41C597.177 568.399 596.313 574.128 594.583 578.595C592.854 583.063 590.26 586.377 586.801 588.539C583.343 590.701 578.983 591.781 573.723 591.781ZM578.047 575.461C580.352 575.461 582.406 574.92 584.207 573.839C586.081 572.759 587.558 571.173 588.639 569.084C589.72 566.922 590.26 564.364 590.26 561.41C590.26 558.456 589.72 555.97 588.639 553.952C587.558 551.862 586.081 550.277 584.207 549.196C582.406 548.116 580.352 547.575 578.047 547.575C575.669 547.575 573.543 548.116 571.67 549.196C569.868 550.277 568.427 551.862 567.346 553.952C566.266 555.97 565.725 558.456 565.725 561.41C565.725 564.364 566.266 566.922 567.346 569.084C568.427 571.173 569.868 572.759 571.67 573.839C573.543 574.92 575.669 575.461 578.047 575.461ZM590.909 590.809V580.757L591.017 561.41L589.936 542.063V510.611H610.472V590.809H590.909ZM654.38 591.781C647.462 591.781 641.41 590.484 636.222 587.89C631.106 585.224 627.107 581.621 624.225 577.082C621.414 572.47 620.009 567.246 620.009 561.41C620.009 555.573 621.378 550.385 624.116 545.846C626.927 541.234 630.782 537.668 635.681 535.146C640.581 532.552 646.093 531.255 652.218 531.255C657.983 531.255 663.243 532.443 667.998 534.821C672.754 537.127 676.537 540.55 679.347 545.089C682.157 549.629 683.562 555.141 683.562 561.626C683.562 562.347 683.526 563.175 683.454 564.112C683.382 565.049 683.31 565.913 683.238 566.706H636.87V555.898H672.322L664.54 558.924C664.612 556.258 664.107 553.952 663.027 552.007C662.018 550.061 660.577 548.548 658.703 547.467C656.902 546.386 654.776 545.846 652.326 545.846C649.876 545.846 647.715 546.386 645.841 547.467C644.04 548.548 642.635 550.097 641.626 552.115C640.617 554.06 640.113 556.366 640.113 559.032V562.166C640.113 565.049 640.689 567.535 641.842 569.624C643.067 571.714 644.796 573.335 647.03 574.488C649.264 575.569 651.93 576.109 655.028 576.109C657.911 576.109 660.36 575.713 662.378 574.92C664.468 574.056 666.521 572.759 668.539 571.029L679.347 582.27C676.537 585.368 673.078 587.746 668.971 589.404C664.864 590.989 660 591.781 654.38 591.781ZM714.323 591.781C709.351 591.781 704.488 591.205 699.732 590.052C695.048 588.899 691.265 587.458 688.383 585.729L694.544 571.678C697.282 573.335 700.488 574.668 704.163 575.677C707.838 576.614 711.441 577.082 714.972 577.082C718.43 577.082 720.808 576.722 722.105 576.001C723.474 575.281 724.159 574.308 724.159 573.083C724.159 571.93 723.51 571.101 722.213 570.597C720.988 570.021 719.331 569.588 717.241 569.3C715.224 569.012 712.99 568.687 710.54 568.327C708.09 567.967 705.604 567.499 703.082 566.922C700.633 566.274 698.363 565.337 696.273 564.112C694.256 562.815 692.634 561.086 691.409 558.924C690.184 556.762 689.572 554.024 689.572 550.71C689.572 546.963 690.653 543.648 692.814 540.766C695.048 537.812 698.291 535.506 702.542 533.849C706.793 532.119 711.981 531.255 718.106 531.255C722.213 531.255 726.356 531.687 730.536 532.552C734.787 533.344 738.354 534.569 741.236 536.226L735.075 550.169C732.193 548.512 729.311 547.395 726.428 546.819C723.546 546.17 720.808 545.846 718.214 545.846C714.755 545.846 712.306 546.242 710.864 547.035C709.495 547.827 708.811 548.8 708.811 549.953C708.811 551.106 709.423 552.007 710.648 552.655C711.873 553.232 713.494 553.7 715.512 554.06C717.602 554.348 719.871 554.673 722.321 555.033C724.771 555.321 727.221 555.79 729.671 556.438C732.193 557.087 734.463 558.059 736.48 559.356C738.57 560.581 740.227 562.275 741.452 564.436C742.677 566.526 743.289 569.228 743.289 572.542C743.289 576.145 742.173 579.388 739.939 582.27C737.777 585.152 734.535 587.458 730.211 589.187C725.96 590.917 720.664 591.781 714.323 591.781Z" fill="#334E9F"/>
<path d="M120.536 590.809L99.6757 532.227H119.131L135.668 581.189H126.372L143.558 532.227H161.067L177.604 581.189H168.525L185.602 532.227H203.652L182.792 590.809H162.905L148.854 550.277H154.906L140.423 590.809H120.536ZM209.927 590.809V532.227H230.463V590.809H209.927ZM220.195 525.742C216.448 525.742 213.422 524.697 211.116 522.608C208.81 520.518 207.657 517.924 207.657 514.826C207.657 511.727 208.81 509.133 211.116 507.044C213.422 504.954 216.448 503.909 220.195 503.909C223.942 503.909 226.968 504.918 229.274 506.936C231.58 508.881 232.732 511.403 232.732 514.502C232.732 517.744 231.58 520.446 229.274 522.608C227.04 524.697 224.014 525.742 220.195 525.742ZM240.782 590.809V578.703L273.64 540.874L277.098 547.467H241.539V532.227H293.743V544.225L260.778 582.162L257.319 575.461H294.824V590.809H240.782ZM300.84 590.809V578.703L333.698 540.874L337.156 547.467H301.597V532.227H353.801V544.225L320.836 582.162L317.377 575.461H354.882V590.809H300.84ZM391.934 612.75C386.313 612.75 380.945 612.101 375.829 610.804C370.785 609.507 366.462 607.598 362.859 605.076L370.317 590.701C372.767 592.646 375.793 594.159 379.396 595.24C383.071 596.393 386.638 596.969 390.096 596.969C395.644 596.969 399.644 595.744 402.093 593.295C404.543 590.917 405.768 587.422 405.768 582.81V575.893L406.849 559.464L406.741 542.928V532.227H426.304V580.108C426.304 591.205 423.314 599.419 417.333 604.751C411.353 610.083 402.886 612.75 391.934 612.75ZM388.367 587.782C383.179 587.782 378.387 586.629 373.992 584.324C369.668 581.946 366.174 578.667 363.508 574.488C360.914 570.237 359.617 565.229 359.617 559.464C359.617 553.7 360.914 548.728 363.508 544.549C366.174 540.298 369.668 537.019 373.992 534.713C378.387 532.407 383.179 531.255 388.367 531.255C393.339 531.255 397.59 532.263 401.121 534.281C404.651 536.226 407.317 539.289 409.119 543.468C410.992 547.647 411.929 552.979 411.929 559.464C411.929 565.949 410.992 571.282 409.119 575.461C407.317 579.64 404.651 582.738 401.121 584.756C397.59 586.773 393.339 587.782 388.367 587.782ZM393.231 571.462C395.68 571.462 397.842 570.957 399.716 569.948C401.661 568.94 403.174 567.535 404.255 565.733C405.408 563.932 405.984 561.842 405.984 559.464C405.984 557.087 405.408 554.997 404.255 553.196C403.174 551.394 401.661 550.025 399.716 549.088C397.842 548.08 395.68 547.575 393.231 547.575C390.781 547.575 388.583 548.08 386.638 549.088C384.692 550.025 383.143 551.394 381.99 553.196C380.909 554.997 380.369 557.087 380.369 559.464C380.369 561.842 380.909 563.932 381.99 565.733C383.143 567.535 384.692 568.94 386.638 569.948C388.583 570.957 390.781 571.462 393.231 571.462ZM464.142 591.781C459.386 591.781 455.099 590.845 451.28 588.971C447.533 587.098 444.579 584.179 442.417 580.216C440.327 576.181 439.283 571.101 439.283 564.977V532.227H459.819V561.626C459.819 566.166 460.647 569.408 462.304 571.354C464.034 573.299 466.448 574.272 469.546 574.272C471.564 574.272 473.401 573.803 475.058 572.867C476.716 571.93 478.049 570.453 479.057 568.435C480.066 566.346 480.571 563.68 480.571 560.437V532.227H501.106V590.809H481.543V574.272L485.326 578.919C483.309 583.243 480.39 586.485 476.571 588.647C472.752 590.737 468.609 591.781 464.142 591.781ZM514.334 590.809V532.227H534.87V590.809H514.334ZM524.602 525.742C520.855 525.742 517.829 524.697 515.523 522.608C513.217 520.518 512.064 517.924 512.064 514.826C512.064 511.727 513.217 509.133 515.523 507.044C517.829 504.954 520.855 503.909 524.602 503.909C528.349 503.909 531.375 504.918 533.681 506.936C535.987 508.881 537.14 511.403 537.14 514.502C537.14 517.744 535.987 520.446 533.681 522.608C531.447 524.697 528.421 525.742 524.602 525.742ZM573.723 591.781C568.391 591.781 563.527 590.556 559.132 588.107C554.809 585.585 551.35 582.09 548.756 577.622C546.162 573.083 544.865 567.679 544.865 561.41C544.865 555.213 546.162 549.881 548.756 545.414C551.35 540.874 554.809 537.379 559.132 534.929C563.527 532.48 568.391 531.255 573.723 531.255C578.767 531.255 583.019 532.335 586.477 534.497C590.008 536.659 592.674 539.973 594.475 544.441C596.277 548.908 597.177 554.565 597.177 561.41C597.177 568.399 596.313 574.128 594.583 578.595C592.854 583.063 590.26 586.377 586.801 588.539C583.343 590.701 578.983 591.781 573.723 591.781ZM578.047 575.461C580.352 575.461 582.406 574.92 584.207 573.839C586.081 572.759 587.558 571.173 588.639 569.084C589.72 566.922 590.26 564.364 590.26 561.41C590.26 558.456 589.72 555.97 588.639 553.952C587.558 551.862 586.081 550.277 584.207 549.196C582.406 548.116 580.352 547.575 578.047 547.575C575.669 547.575 573.543 548.116 571.67 549.196C569.868 550.277 568.427 551.862 567.346 553.952C566.266 555.97 565.725 558.456 565.725 561.41C565.725 564.364 566.266 566.922 567.346 569.084C568.427 571.173 569.868 572.759 571.67 573.839C573.543 574.92 575.669 575.461 578.047 575.461ZM590.909 590.809V580.757L591.017 561.41L589.936 542.063V510.611H610.472V590.809H590.909ZM654.38 591.781C647.462 591.781 641.41 590.484 636.222 587.89C631.106 585.224 627.107 581.621 624.225 577.082C621.414 572.47 620.009 567.246 620.009 561.41C620.009 555.573 621.378 550.385 624.116 545.846C626.927 541.234 630.782 537.668 635.681 535.146C640.581 532.552 646.093 531.255 652.218 531.255C657.983 531.255 663.243 532.443 667.998 534.821C672.754 537.127 676.537 540.55 679.347 545.089C682.157 549.629 683.562 555.141 683.562 561.626C683.562 562.347 683.526 563.175 683.454 564.112C683.382 565.049 683.31 565.913 683.238 566.706H636.87V555.898H672.322L664.54 558.924C664.612 556.258 664.107 553.952 663.027 552.007C662.018 550.061 660.577 548.548 658.703 547.467C656.902 546.386 654.776 545.846 652.326 545.846C649.876 545.846 647.715 546.386 645.841 547.467C644.04 548.548 642.635 550.097 641.626 552.115C640.617 554.06 640.113 556.366 640.113 559.032V562.166C640.113 565.049 640.689 567.535 641.842 569.624C643.067 571.714 644.796 573.335 647.03 574.488C649.264 575.569 651.93 576.109 655.028 576.109C657.911 576.109 660.36 575.713 662.378 574.92C664.468 574.056 666.521 572.759 668.539 571.029L679.347 582.27C676.537 585.368 673.078 587.746 668.971 589.404C664.864 590.989 660 591.781 654.38 591.781ZM714.323 591.781C709.351 591.781 704.488 591.205 699.732 590.052C695.048 588.899 691.265 587.458 688.383 585.729L694.544 571.678C697.282 573.335 700.488 574.668 704.163 575.677C707.838 576.614 711.441 577.082 714.972 577.082C718.43 577.082 720.808 576.722 722.105 576.001C723.474 575.281 724.159 574.308 724.159 573.083C724.159 571.93 723.51 571.101 722.213 570.597C720.988 570.021 719.331 569.588 717.241 569.3C715.224 569.012 712.99 568.687 710.54 568.327C708.09 567.967 705.604 567.499 703.082 566.922C700.633 566.274 698.363 565.337 696.273 564.112C694.256 562.815 692.634 561.086 691.409 558.924C690.184 556.762 689.572 554.024 689.572 550.71C689.572 546.963 690.653 543.648 692.814 540.766C695.048 537.812 698.291 535.506 702.542 533.849C706.793 532.119 711.981 531.255 718.106 531.255C722.213 531.255 726.356 531.687 730.536 532.552C734.787 533.344 738.354 534.569 741.236 536.226L735.075 550.169C732.193 548.512 729.311 547.395 726.428 546.819C723.546 546.17 720.808 545.846 718.214 545.846C714.755 545.846 712.306 546.242 710.864 547.035C709.495 547.827 708.811 548.8 708.811 549.953C708.811 551.106 709.423 552.007 710.648 552.655C711.873 553.232 713.494 553.7 715.512 554.06C717.602 554.348 719.871 554.673 722.321 555.033C724.771 555.321 727.221 555.79 729.671 556.438C732.193 557.087 734.463 558.059 736.48 559.356C738.57 560.581 740.227 562.275 741.452 564.436C742.677 566.526 743.289 569.228 743.289 572.542C743.289 576.145 742.173 579.388 739.939 582.27C737.777 585.152 734.535 587.458 730.211 589.187C725.96 590.917 720.664 591.781 714.323 591.781Z" fill="black"/>
</svg>
